<?xml version="1.0" encoding="UTF-8" standalone="no"?>
<svg
   version="1.1"
   id="Layer_1"
   x="0px"
   y="0px"
   width="100%"
   viewBox="0 0 775 860"
   enable-background="new 0 0 775 860"
   xml:space="preserve"
   sodipodi:docname="file (3).svg"
   inkscape:version="1.4.2 (f4327f4, 2025-05-13)"
   xmlns:inkscape="http://www.inkscape.org/namespaces/inkscape"
   xmlns:sodipodi="http://sodipodi.sourceforge.net/DTD/sodipodi-0.dtd"
   xmlns="http://www.w3.org/2000/svg"
   xmlns:svg="http://www.w3.org/2000/svg"><defs
   id="defs17" /><sodipodi:namedview
   id="namedview17"
   pagecolor="#ffffff"
   bordercolor="#000000"
   borderopacity="0.25"
   inkscape:showpageshadow="2"
   inkscape:pageopacity="0.0"
   inkscape:pagecheckerboard="0"
   inkscape:deskcolor="#d1d1d1"
   inkscape:zoom="1.3360465"
   inkscape:cx="387.71105"
   inkscape:cy="430"
   inkscape:window-width="2304"
   inkscape:window-height="1430"
   inkscape:window-x="2869"
   inkscape:window-y="247"
   inkscape:window-maximized="1"
   inkscape:current-layer="Layer_1" />
<path
   fill="#010101"
   opacity="1"
   stroke="none"
   d="M 0.999999,451 C 1,446.97482 1,442.94961 1.291317,438.16956 c 0.434313,-8.55222 0.577311,-16.34949 0.714336,-24.61487 0.993086,-12.1077 1.760915,-23.77286 3.043604,-35.38114 2.097106,-18.97869 6.442534,-37.4906 11.871701,-55.7973 9.476394,-31.95358 22.975969,-62.0704 40.170904,-90.58787 13.448925,-22.3048 28.84621,-43.2155 46.865818,-61.94771 12.83881,-13.34653 26.74337,-25.72785 40.73911,-37.88755 21.64798,-18.80807 45.93923,-33.824687 71.61347,-46.406848 25.62112,-12.556137 52.38545,-22.095672 80.2064,-28.861606 22.69477,-5.519265 45.65671,-8.940789 68.85156,-10.412278 23.8436,-1.512653 47.77433,-0.311306 71.3989,3.068158 17.55579,2.511333 34.92438,6.60733 52.20062,10.733177 26.9841,6.444237 52.50308,17.02066 77.06131,29.75489 24.29816,12.599357 46.9469,27.725917 67.91791,45.457627 20.66577,17.4736 39.70709,36.54433 56.26855,57.81795 29.00135,37.25288 51.10004,78.38455 65.62275,123.42828 9.20373,28.54642 14.82928,57.85455 16.87072,87.72522 1.03638,15.164 1.04267,30.50211 0.0862,45.67148 -1.11438,17.67462 -3.12946,35.35684 -5.93592,52.84604 -4.78875,29.8424 -14.75158,58.21447 -27.16516,85.67785 -11.31653,25.03626 -25.05383,48.79932 -41.91162,70.4831 -12.24023,15.7442 -25.36566,30.88751 -39.07745,45.36999 -9.28107,9.80274 -20.05274,18.25226 -30.53418,26.84796 -19.1062,15.66889 -39.66986,29.21332 -61.48285,40.85401 -23.60956,12.59949 -48.29968,22.45184 -74.06848,29.67944 -30.77008,8.63043 -62.16754,13.22632 -94.04743,14.09522 -21.49423,0.58581 -42.93762,-0.69159 -64.30359,-3.67145 -19.29513,-2.6911 -38.29895,-6.50336 -56.93576,-12.10175 -28.32301,-8.50805 -55.12785,-20.48352 -80.80845,-35.1549 C 170.28183,749.86218 146.41495,731.69055 124.1714,711.38983 108.73154,697.29858 94.711037,681.83026 81.788704,665.33051 54.59742,630.61163 33.851395,592.50116 20.313469,550.51831 11.360814,522.75507 4.336663,494.59051 2.933005,465.26566 2.704441,460.49054 1.664768,455.75424 0.999999,451 M 84.99543,590.5069 c 2.939148,3.50494 5.677849,7.20538 8.862892,10.4704 5.20565,5.33636 9.085568,11.01776 10.378228,18.74639 1.15421,6.90076 2.73093,14.31885 6.36009,20.10419 9.70346,15.46851 22.2514,28.74994 36.2033,40.53253 12.77548,10.78913 25.43167,21.83911 39.06345,31.46735 22.24106,15.7088 46.19693,28.47436 71.66026,38.40985 19.42975,7.58124 39.14539,14.04736 59.66992,17.78906 12.33945,2.24958 24.73197,4.32916 37.18122,5.80603 6.6585,0.78992 13.48782,0.14026 19.54886,0.14026 -4.80445,-6.21039 -10.26838,-12.77301 -15.13746,-19.75085 -3.02139,-4.32996 -6.40884,-9.05243 -7.33899,-14.02741 -1.12738,-6.02978 -3.53704,-10.50348 -7.44479,-15.05816 -9.86066,-11.49311 -13.70657,-18.03602 -6.06015,-34.07984 2.89804,-6.08081 6.32489,-12.39282 4.84659,-19.58313 -3.16559,-15.39734 -10.06201,-28.79114 -21.85709,-39.4538 -6.78814,-6.13647 -8.37939,-13.75079 -6.17654,-22.39678 3.90927,-15.34327 -3.4281,-24.79633 -17.59384,-22.50312 -6.11078,0.98938 -10.95411,-0.83441 -14.116,-6.05615 -2.72992,-4.50824 -6.83136,-5.66559 -11.36884,-4.9397 -4.41946,0.7071 -8.68332,2.39093 -13.013,3.65436 -9.57852,2.79498 -19.0046,5.57099 -29.34857,3.45172 -4.46417,-0.91461 -9.43817,0.65259 -14.17975,1.10095 -3.84292,0.36341 -7.9449,1.79432 -11.48042,0.92188 -13.1055,-3.23401 -22.97031,-11.50336 -30.54839,-22.37787 -5.7611,-8.26709 -11.96896,-15.97211 -19.78715,-22.4389 -2.65183,-2.19348 -4.5531,-5.51349 -6.22717,-8.62549 -3.7903,-7.04614 -1.0588,-13.99005 1.47209,-20.55866 2.77054,-7.19055 4.15898,-14.81533 1.93713,-21.75131 -4.41583,-13.78482 -1.36877,-26.29196 5.02529,-38.01315 6.5214,-11.95465 15.15795,-22.5672 25.74432,-31.42478 3.47174,-2.90484 5.63396,-6.63885 5.87122,-11.43649 0.32171,-6.50549 2.74134,-12.4664 8.1305,-16.11163 5.8713,-3.97138 9.65622,-9.09097 12.16246,-15.48871 0.58718,-1.49887 1.40119,-2.95929 2.35915,-4.25357 3.68575,-4.9798 3.72336,-4.952 -2.183,-7.80454 -7.6391,-3.68945 -9.35516,-7.83435 -6.79671,-16.29678 0.69922,-2.31274 1.59459,-4.61838 1.89141,-6.99091 0.93957,-7.51031 1.92981,-15.03573 2.31964,-22.58529 0.22847,-4.42462 3.15684,-8.49054 7.59079,-8.01514 8.90524,0.95478 17.81268,2.08301 26.62279,3.67362 7.94873,1.43509 14.41336,-3.44715 12.64216,-10.46457 -0.64482,-2.55475 -2.41369,-4.97199 -4.13391,-7.07166 -2.09824,-2.56106 -4.78917,-4.62628 -7.03918,-7.0755 -4.5049,-4.90375 -3.70995,-8.58322 2.64001,-10.0238 16.94826,-3.84494 31.54677,-11.63147 42.94567,-24.84932 6.52676,-7.56827 14.23736,-11.60414 24.48013,-11.41271 6.85141,0.12804 10.5426,-4.43559 9.12457,-10.54861 -1.81763,-7.8358 0.0521,-14.14998 6.03574,-19.31481 5.99963,2.28837 9.16034,6.90505 9.76266,12.71203 0.28198,2.71849 -1.72128,5.67401 -3.08706,9.69441 2.06887,0.67969 5.18136,2.6745 8.18008,2.51602 11.82525,-0.62488 23.66898,-1.53935 35.38864,-3.18246 4.19397,-0.58799 9.83716,-1.97199 10.53882,-7.36054 1.02594,-7.87921 3.48572,-12.90048 12.66507,-11.49536 1.04675,0.16023 3.08069,-1.67386 3.48968,-2.95564 0.48569,-1.52216 0.23178,-3.79599 -0.6463,-5.11542 -1.28335,-1.92844 -3.4075,-3.2973 -6.05264,-5.70509 12.99576,-2.70607 25.35177,-5.27894 37.70779,-7.85178 0.0208,-0.58582 0.0416,-1.17162 0.0623,-1.75742 -2.16849,-0.40055 -4.33698,-0.80111 -6.49576,-1.19989 0.56326,-0.50206 1.40012,-1.24797 2.76633,-2.46571 -2.7005,-0.6709 -5.69315,-2.44617 -7.12488,-1.59521 -6.98349,4.15062 -15.09366,2.08438 -22.2778,4.66868 -0.616,0.22159 -1.65424,-0.7308 -2.49634,-1.13783 2.07413,-2.88843 -1.5097,-2.48383 -2.2319,-3.74689 -0.52341,-0.91548 -1.58338,-1.52537 -2.10147,-2.4425 -3.48477,-6.16849 -2.52863,-10.69336 2.82846,-16.84418 2.30771,-2.6496 4.41852,-5.67256 5.79431,-8.87959 1.63348,-3.80767 -0.20923,-5.7098 -4.29639,-6.02465 -4.63257,-0.35687 -7.51013,2.27182 -9.95358,5.43901 -4.87241,6.31565 -9.48172,12.83384 -14.22665,19.24845 -2.32175,3.13876 -3.52762,6.62668 -0.88813,9.87051 1.78696,2.19611 4.53641,3.62935 6.91843,5.31467 1.98926,1.40742 4.07007,2.68545 5.5921,3.68161 -3.82944,2.4099 -7.78244,3.79828 -10.01254,6.57194 -2.96143,3.68325 -4.33261,8.59787 -6.84582,12.70252 -2.31418,3.77958 -4.56879,9.11152 -8.04285,10.31495 -5.40811,1.87337 -11.82605,0.84388 -17.81735,0.98957 -0.34549,0.008 -0.70301,-0.47695 -0.77482,-0.5291 1.0156,-1.71344 2.73829,-3.27203 2.67319,-4.75192 -0.23556,-5.35308 -0.71326,-10.75362 -1.79272,-15.99341 -0.89563,-4.34737 -4.65204,-5.68564 -8.80326,-3.80574 -2.38379,1.07951 -4.70895,2.29089 -7.10745,3.33508 -5.78943,2.52043 -11.23123,1.86504 -14.35348,-2.05173 -6.90033,-8.65622 -7.89362,-18.1582 -1.85086,-27.13107 3.85669,-5.72684 10.16586,-9.96301 15.83856,-14.25558 4.63357,-3.50628 10.50326,-5.47593 14.83655,-9.25896 6.15716,-5.37526 11.12521,-12.08998 17.10199,-17.69887 14.61831,-13.71851 32.53372,-18.14993 51.56729,-14.22079 19.03961,3.93037 37.64999,10.02012 56.32641,15.57387 4.71872,1.40318 9.25455,3.95739 13.35086,6.75048 3.35566,2.28806 2.85807,6.33245 -0.83807,7.90918 -3.6701,1.56562 -7.7178,2.76792 -11.67032,3.01839 -5.00619,0.31726 -10.08353,-0.48743 -15.13016,-0.80824 -0.18887,0.34961 -0.37774,0.69923 -0.56662,1.04884 6.32285,3.92526 12.64569,7.85052 18.22101,11.31171 10.52655,-14.59404 23.99491,-20.15995 40.37042,-20.1792 -2.15295,-0.20105 -4.3059,-0.4021 -6.45886,-0.60317 l 0.1594,-0.9462 h 3.56378 c 0.0842,-0.28268 0.16833,-0.56538 0.2525,-0.84806 -3.5437,-1.66025 -7.08743,-3.3205 -10.96259,-5.13605 -0.32452,-4.18532 3.19654,-6.04169 6.73954,-6.45705 11.75628,-1.37826 23.57531,-2.24048 35.38049,-3.17091 3.16797,-0.2497 6.37231,-0.0378 9.56,-0.0378 -3.66999,-3.49044 -7.5127,-5.87599 -11.48096,-8.03024 -22.30292,-12.10743 -46.1907,-19.99196 -70.75745,-25.816181 -21.5495,-5.108879 -43.49414,-8.078698 -65.60229,-9.053109 -19.31555,-0.851333 -38.55466,0.524193 -57.71103,3.699807 -22.80951,3.781189 -42.84244,13.560743 -60.76242,27.548903 -17.01251,13.27983 -33.11406,27.72017 -49.8508,41.36238 -8.63489,7.03835 -18.65971,9.98584 -29.84457,7.5213 -10.9721,-2.41765 -21.1749,-1.39381 -29.98302,6.36392 -7.53009,6.63209 -15.39583,12.91807 -22.55177,19.92998 -6.95749,6.81751 -13.69764,13.98699 -19.56984,21.7323 -3.43219,4.52699 -6.40426,0.0282 -9.56428,0.78397 l 0.55555,-3.03348 c -1.35577,0.94185 -2.14441,2.07983 -2.51589,3.34073 -4.71093,15.99062 -9.33112,32.00796 -14.04989,47.99626 -1.17067,3.96643 -3.67983,5.1416 -7.291056,2.72537 -3.045807,-2.03796 -5.995506,-4.21957 -9.771255,-6.89215 -6.824158,14.8309 -13.84568,28.86499 -19.809937,43.3349 -9.366127,22.72324 -16.894901,46.09409 -20.174114,70.56168 -2.332253,17.40195 -4.451675,34.86108 -5.740822,52.36282 -0.713802,9.6908 0.218395,19.53907 0.87719,29.28467 0.687027,10.16327 1.293686,20.40302 3.074222,30.40665 3.79126,21.30041 8.975487,42.28833 16.853386,62.52228 5.769585,14.8189 11.205048,29.79821 22.002106,42.83386 m 387.9725,-165.95139 c -1.9047,-2.08295 -3.80936,-4.16586 -5.71402,-6.24881 0.23904,3.03659 1.39053,5.61051 2.6849,8.11044 5.31116,10.25773 10.66763,20.49201 16.00366,30.73685 2.62909,5.0477 5.40409,10.02698 7.82959,15.1709 2.26795,4.80988 5.10572,9.62549 6.0311,14.73926 2.22095,12.27307 7.31119,22.44256 16.98309,30.58551 5.58722,4.70398 10.06824,10.52484 11.29071,18.28442 0.92133,5.8476 5.39753,8.73218 10.70728,8.9234 5.82935,0.2099 11.88763,-0.25866 17.51996,-1.70337 7.013,-1.79864 13.73029,-4.80206 20.49731,-7.48217 2.86579,-1.13507 4.67878,-0.30078 3.94971,2.54699 -1.95502,7.63587 -3.77509,15.43079 -6.90442,22.61567 -6.74737,15.49212 -16.3872,29.06152 -29.8233,39.62054 -13.23676,10.4024 -26.46735,20.72967 -36.72534,34.39233 -3.96073,5.27527 -7.72065,10.58515 -7.08677,17.18256 0.61707,6.42255 2.504,12.77307 4.30085,19.02069 2.80533,9.75433 1.51816,18.55451 -4.02875,27.17059 -4.41388,6.85614 -11.61279,8.80536 -18.21252,11.65277 -7.87415,3.39734 -13.60499,8.08545 -14.69138,17.03772 -0.29797,2.45539 -0.53253,4.93439 -0.55304,7.40454 -0.072,8.67841 -0.0236,8.70588 -8.2655,11.20948 -2.01615,0.61242 -4.1081,0.97271 -6.16043,1.46875 -3.69928,0.89392 -6.2443,2.62762 -6.69345,6.95227 -0.42347,4.0769 -2.58191,7.31054 -6.48722,9.23584 -6.94745,3.42517 -13.82721,6.98773 -20.73529,10.49286 53.60053,-4.64783 103.73007,-20.17792 149.27274,-49.11762 45.48016,-28.90002 83.66662,-65.4956 112.24231,-111.39862 28.22961,-45.34686 45.15509,-94.69763 49.81518,-148.02493 -0.78436,1.16437 -0.82947,2.52191 -1.17248,3.79947 -5.47388,20.39035 -10.87543,40.80148 -16.57837,61.12793 -1.20532,4.2959 -3.5459,8.27325 -5.36341,12.3974 -0.66381,-0.12885 -1.32763,-0.25763 -1.99145,-0.38648 -8.77521,-23.41437 -7.13532,-48.28366 -9.21234,-71.95956 -1.53687,0.58117 -3.43921,0.98446 -4.98902,1.95221 -3.27233,2.0433 -5.42779,0.48736 -7.01623,-2.08542 -1.17255,-1.89911 -2.69385,-4.33441 -2.3822,-6.25916 0.98169,-6.06222 -2.94532,-9.11105 -6.56452,-12.44354 -5.48523,-5.05066 -11.5321,-8.98443 -19.47271,-7.2359 -12.2981,2.70807 -24.7616,1.32828 -35.53119,-3.73627 -8.07495,-3.79736 -15.46418,-7.43756 -24.52259,-8.52258 -8.77472,-1.05103 -12.42718,-9.48053 -17.16192,-15.88855 -1.54688,-2.09347 -2.98181,-4.1344 -6.07996,-2.94461 -0.14776,0.0568 -0.45404,-0.29926 -0.69043,-0.46579 0.53522,-0.34885 1.05628,-0.68845 2.32532,-1.51553 -2.74353,-0.92084 -4.90808,-1.64734 -7.49262,-2.5148 0.46308,1.87445 0.50904,3.06457 1.02448,3.99444 6.38464,11.51734 12.68829,23.0856 19.41608,34.40097 1.15899,1.94928 4.51147,4.23184 6.30121,3.84137 4.25414,-0.92807 8.41906,-2.9797 12.16406,-5.31012 3.22363,-2.00601 5.42077,-1.69781 8.3471,0.44415 5.48621,4.01581 11.32636,7.54474 16.95026,11.37748 2.0954,1.42807 3.9975,3.13977 6.23981,4.92254 -4.57434,6.60889 -9.06183,12.43647 -12.83918,18.69287 -6.8366,11.32352 -15.08428,21.48423 -26.89843,27.47089 -18.50891,9.37915 -37.53553,17.73944 -56.39234,26.42377 -1.29534,0.59655 -3.83062,0.97754 -4.38134,0.3053 -3.14948,-3.84455 -7.06104,-7.47803 -6.92279,-13.04285 0.28796,-11.59122 -4.31446,-21.17557 -11.47113,-29.97961 -5.74097,-7.06257 -12.45267,-13.79029 -11.8548,-24.10142 0.0651,-1.12326 -1.02567,-2.34173 -1.65763,-3.47287 -6.18438,-11.06939 -12.3511,-22.14907 -18.62481,-33.16775 -0.77857,-1.36728 -2.15042,-2.39673 -3.10452,-3.42828 -1.26981,1.03982 -2.26648,1.85598 -3.16388,2.59088 0.64572,0.56305 1.27056,1.10791 1.89541,1.65277 -1.22229,0.42718 -2.52673,0.48404 -3.05713,-0.12891 -1.80414,-2.08502 -3.33511,-4.40643 -5.12127,-7.3833 M 323.94534,368.14047 c -0.45379,3.05029 -1.04358,6.08862 -1.31296,9.15509 -0.17529,1.99542 -0.21081,4.11148 0.25864,6.03495 1.44626,5.92529 7.00665,5.55129 11.2764,6.5664 7.64847,1.81839 15.03073,3.16931 21.03729,9.40488 4.14523,4.30325 10.00238,7.2157 15.51856,9.86758 5.52301,2.65531 7.48712,1.31787 9.27868,-4.37308 0.57816,-1.83663 1.15995,-3.70022 2.00913,-5.41848 3.15915,-6.39276 6.89053,-8.04117 13.70807,-5.90772 9.4194,2.94764 18.66296,6.56162 28.21847,8.93906 8.47797,2.10937 17.15442,5.00906 26.07309,2.61563 5.66007,-1.51895 11.18003,-1.42087 16.64331,0.15161 7.30286,2.10196 12.08078,-0.85223 14.84683,-7.2576 3.81473,-8.8338 10.34867,-17.20407 6.32691,-27.1463 -4.98352,1.46185 -9.72684,4.017 -14.42496,3.93643 -5.85492,-0.10034 -12.05725,-1.5223 -17.40368,-3.93673 -5.96583,-2.69416 -11.60779,0.0658 -17.23551,-0.8754 -9.01227,-1.5072 -16.81683,-14.98679 -14.48212,-25.54425 1.03492,-4.67981 -0.62713,-7.42004 -3.93402,-10.43671 -6.00122,4.22089 -12.32425,7.85208 -21.43231,5.3934 1.72644,3.92289 2.60614,6.68729 4.06894,9.09787 3.93015,6.47638 4.37146,12.77042 0.0738,19.26676 -2.00689,3.03369 -4.10925,3.71939 -7.25183,1.60651 -3.54239,-2.38172 -4.73184,-7.19166 -3.03073,-14.18714 -1.91174,-0.74109 -4.02576,-1.21738 -5.7626,-2.29925 -4.91901,-3.06394 -6.49607,-8.08262 -6.97297,-13.46463 -0.64727,-7.30503 -2.84213,-13.52594 -9.27456,-17.99225 -11.28967,-7.83887 -22.31851,-16.05347 -33.47885,-24.12677 -4.1839,4.40515 -1.72867,7.99243 0.92532,11.47055 2.58917,3.39322 5.79279,6.40906 7.88394,10.07171 4.33191,7.58744 11.19571,11.36496 18.91529,14.35346 2.03524,0.78793 4.15243,2.28912 5.35617,4.05859 1.40631,2.06723 2.20477,5.21942 -1.3982,6.15555 -3.8052,0.98865 -5.34793,3.35544 -5.97009,6.83902 -0.10739,0.60141 -0.25449,1.26529 -0.59985,1.74405 -4.20462,5.82816 -8.4498,11.62707 -13.27301,18.24057 -5.25592,-2.4285 -11.45078,-5.29083 -18.92304,-8.74338 4.2992,-1.2616 7.88175,-2.81952 11.60443,-3.30676 9.71744,-1.27188 12.97672,-8.66931 10.08826,-13.94296 -0.5993,-1.09421 -3.59488,-1.45502 -3.61127,-2.19541 -0.10635,-4.79693 -4.21777,-5.95715 -6.95453,-8.32086 -5.05633,-4.36713 -10.13247,-8.71515 -15.30737,-12.94009 -4.65561,-3.801 -9.34296,-7.39664 -16.11423,-5.85804 -7.16348,1.62775 -14.54574,2.38764 -21.6007,4.35691 -3.39032,0.94635 -6.44318,3.55963 -9.2999,5.85272 -4.32761,3.47378 -8.0658,7.73022 -12.57556,10.91647 -5.61948,3.97019 -10.41852,8.27918 -12.12082,15.22455 -1.60359,6.54266 -6.29906,10.43393 -12.14144,12.55167 -6.21131,2.25146 -12.83451,3.34323 -19.15574,5.32989 -1.75984,0.55307 -3.90195,2.21976 -4.42587,3.84165 -0.83265,2.57745 0.84872,4.28817 3.69322,5.16653 8.44619,2.60806 15.97273,-0.65375 23.4832,-3.49692 4.65181,-1.76104 8.77539,-5.33947 13.51166,-6.36136 8.11184,-1.75021 16.51934,-2.1249 24.80032,-3.09768 7.82175,-0.91886 15.62112,-2.11688 23.4667,-2.71491 5.88822,-0.44879 11.85273,-0.20114 16.40204,5.73462 M 511.9996,322.70779 c -1.7547,-1.92474 -3.22281,-4.27685 -5.32358,-5.68551 -4.40011,-2.9505 -9.32543,-5.12812 -13.66824,-8.1503 -3.39163,-2.36035 -7.76745,-4.74634 -5.92294,-10.19943 0.54349,-1.60681 2.18655,-2.80881 3.0271,-4.35828 0.70218,-1.29431 0.9682,-2.82529 1.42737,-4.25143 -1.61472,-0.10602 -3.42432,-0.73734 -4.80912,-0.22358 -4.98224,1.84839 -9.8211,4.08313 -14.22226,5.96195 3.13599,1.84765 6.18845,3.64609 9.24875,5.44916 -4.39975,6.25296 -10.80935,9.73587 -15.46457,7.55856 -2.22284,-1.03967 -5.25643,-4.31543 -4.93344,-6.00781 0.68589,-3.59394 -1.35092,-4.72641 -3.29034,-6.15564 -2.35031,-1.73203 -4.97006,-3.09839 -7.88718,-4.87509 -5.41974,9.13565 -11.30569,17.93936 -15.97842,27.34576 -2.88156,5.80075 -0.31818,8.7727 6.04999,11.14194 4.72805,1.75903 8.50506,-0.26886 11.92907,-2.396 8.79261,-5.46249 17.56949,-4.87476 26.68863,-1.35733 8.48419,3.27246 16.733,7.44498 26.28778,6.63199 5.41504,-0.46076 8.3891,-4.41821 6.8414,-10.42896 m 62.04825,-2.1777 c -9.21765,-5.36374 -11.68152,-13.6409 -6.84906,-22.95859 0.67548,-1.30246 1.25482,-2.65463 1.92481,-3.96005 1.91796,-3.73657 -0.0582,-5.35843 -3.41102,-5.51862 -2.56567,-0.12255 -5.37103,0.0773 -7.72528,1.00663 -12.41174,4.89953 -20.40094,12.22049 -7.37011,25.22656 4.32238,4.31415 7.7304,9.25311 8.42578,15.63095 0.51282,4.70334 2.02112,9.44458 1.68158,14.06577 -0.87152,11.86023 15.42981,18.76687 24.74359,13.87243 2.71136,-1.42486 4.2149,-3.48623 2.6784,-6.50394 -2.19818,-4.31707 -4.78192,-8.44009 -6.92132,-12.78375 -1.02875,-2.08874 -2.43189,-4.76141 -1.91712,-6.707 2.06019,-7.78564 2.31373,-7.71857 -5.26025,-11.37039 z"
   id="path1"
   style="fill:#aa8921;fill-opacity:1"
   sodipodi:nodetypes="cccsssssssssssssssssssssssssssssssccsssscssscssssssscsssssssssssssssssssssssssssssscscsssssscccccsscscssssssscssssccssssssssssssscccccccccssccssssssssscccsscsssssscccssssssscssssssssssssssscssccscccsssssssssccccssssscssssssssscccsccsssscscssssscssssccssscssscsssssscccsscsssssssssssssssccsssscsccssscsscssccscsssssssscc" />

<path
   fill="#2F2F2F"
   opacity="1.000000"
   stroke="none"
   d=" M1.000000,414.468628   C1.166439,414.099976 1.332878,414.199982 1.755471,414.161377   C1.868628,421.820068 1.725630,429.617340 1.291317,437.707336   C1.000000,430.312408 1.000000,422.624847 1.000000,414.468628  z"
   id="path3" />





<path
   fill="#020202"
   opacity="1"
   stroke="none"
   d="m 254.04448,240.14081 c -1.65645,-3.14345 -3.09389,-6.08394 -5.07817,-8.59174 -7.6247,-9.6363 -9.7433,-22.83613 4.68986,-29.76637 1.75852,-0.84438 3.25972,-2.32256 5.07344,-2.92818 2.05079,-0.68477 5.01005,-1.72439 6.34336,-0.81164 2.42071,1.6571 1.23651,4.44017 -0.39167,6.58404 -0.49795,0.65567 -1.07229,1.2533 -0.0849,0.52164 1.74142,2.45662 3.54516,4.87419 5.14126,7.42183 0.1886,0.30104 -0.67221,1.39308 -1.19592,1.98668 -6.788,7.69398 -7.08573,11.11154 -1.62195,20.30868 2.65561,4.47023 5.20328,9.02233 8.16583,13.28284 1.03095,1.48262 3.16266,2.19977 5.43326,3.68668 -0.0637,0.0717 -0.72122,0.91172 -1.4791,1.64865 -7.73367,7.51989 -17.8424,9.75186 -27.77154,12.27957 -2.56015,0.65173 -5.35645,0.90173 -7.95284,0.58554 -0.84959,-0.10346 -2.05543,-2.62604 -1.96663,-3.96741 0.17948,-2.71145 1.09212,-5.38229 1.77717,-8.05067 1.19721,-4.66342 2.7425,-8.9666 8.18795,-10.47948 1.11952,-0.31102 1.81014,-2.16579 2.73061,-3.71066 z"
   id="path9"
   sodipodi:nodetypes="cssssscscsscsssssscc"
   style="fill:#aa8921;fill-opacity:1" />
<path
   fill="#030303"
   opacity="1"
   stroke="none"
   d="m 221.93124,238.35425 c 1.45072,-1.84508 2.55333,-3.64464 4.14661,-4.7114 3.71815,-2.48942 8.40897,-3.37269 11.60843,-0.40964 1.9694,1.82395 2.63728,6.3109 2.14355,9.31525 -1.95269,11.88239 -9.7807,17.31015 -22.74337,14.37241 -1.12561,-0.2551 -2.03534,-1.46271 -3.15059,-2.30762 3.35394,-2.05682 6.49667,-3.98415 9.90269,-6.07294 -2.77528,-2.81733 -4.40457,-5.95654 -1.90732,-10.18606 z"
   id="path10"
   sodipodi:nodetypes="cssssccc"
   style="fill:#aa8921;fill-opacity:1" />
<path
   fill="#040404"
   opacity="1"
   stroke="none"
   d="m 221.79765,175.11118 c 5.56089,1.10607 6.90923,3.89659 4.00229,8.13023 -3.87012,5.6364 -9.59288,8.82989 -16.00658,10.6393 -3.40573,0.96081 -6.55007,-3.9746 -5.22868,-7.84473 2.39514,-7.01506 8.50318,-10.98738 17.23297,-10.9248 z"
   id="path11"
   sodipodi:nodetypes="csssc"
   style="fill:#aa8921;fill-opacity:1" />
<path
   fill="#030303"
   opacity="1"
   stroke="none"
   d="m 506.20966,732.4104 c 5.64685,-8.61847 10.99877,-16.87927 12.02063,-27.21716 0.20709,-2.09558 2.30108,-4.46387 4.1607,-5.85968 9.5398,-7.16046 19.28729,-14.04419 29.25568,-21.23633 2.9798,2.7005 4.67877,7.17566 2.12109,12.17804 -5.01343,9.80566 -10.32666,19.46283 -15.71081,29.0722 -2.61805,4.67261 -5.91797,8.96729 -8.47364,13.66974 -3.29962,6.0716 -9.0235,8.30957 -15.01416,9.85242 -6.11557,1.57513 -9.98929,-3.27478 -8.35949,-10.45923 z"
   id="path12"
   sodipodi:nodetypes="csscssssc"
   style="fill:#aa8921;fill-opacity:1" />
<path
   fill="#040404"
   opacity="1.000000"
   stroke="none"
   d=" M316.589111,340.296326   C318.792206,345.141357 315.185089,352.651337 310.698792,352.897339   C308.188141,353.035034 305.456818,352.549591 305.020203,348.993225   C304.342590,343.473602 305.912231,339.599945 309.629547,339.186737   C311.781342,338.947571 314.046600,339.729126 316.589111,340.296326  z"
   id="path13"
   style="fill:#aa8921;fill-opacity:1" />
<path
   fill="#090909"
   opacity="1.000000"
   stroke="none"
   d=" M314.965515,332.876251   C314.011597,334.417999 313.122986,335.590302 311.785889,337.354187   C310.211853,335.881317 307.287659,334.299408 307.421234,333.042572   C307.753845,329.914185 309.108765,326.689301 310.861023,324.036774   C311.417816,323.193909 314.850250,323.462708 316.334351,324.318939   C317.210144,324.824219 317.146759,327.517639 316.937958,329.154602   C316.787537,330.333923 315.700226,331.393707 314.965515,332.876251  z"
   id="path14"
   style="fill:#aa8921;fill-opacity:1" />
<path
   fill="#010101"
   opacity="1.000000"
   stroke="none"
   d=" M349.165497,344.671631   C349.433929,344.346222 349.702362,344.020813 349.970795,343.695404   C350.215332,344.057343 350.459869,344.419281 350.175171,344.800842   C349.485809,344.770874 349.325653,344.721252 349.165497,344.671631  z"
   id="path15" />
<path
   fill="#010101"
   opacity="1.000000"
   stroke="none"
   d=" M349.861267,344.950409   C349.848083,345.323608 349.619568,345.566895 349.391052,345.810150   C349.267517,345.592682 349.144043,345.375214 349.093018,344.914673   C349.325653,344.721252 349.485809,344.770874 349.861267,344.950409  z"
   id="path16" />
<path
   fill="#010101"
   opacity="1.000000"
   stroke="none"
   d=" M347.304443,343.703400   C347.312714,343.411102 347.541595,343.344360 347.770447,343.277618   C347.688629,343.494720 347.606812,343.711853 347.304443,343.703400  z"
   id="path17" />
</svg>
