<?xml version="1.0" encoding="UTF-8" standalone="no"?>
<svg
   version="1.1"
   id="Layer_1"
   x="0px"
   y="0px"
   width="100%"
   viewBox="0 0 230 246"
   enable-background="new 0 0 230 246"
   xml:space="preserve"
   sodipodi:docname="toolforsystemicchange-logo.svg"
   inkscape:version="1.4.2 (f4327f4, 2025-05-13)"
   xmlns:inkscape="http://www.inkscape.org/namespaces/inkscape"
   xmlns:sodipodi="http://sodipodi.sourceforge.net/DTD/sodipodi-0.dtd"
   xmlns="http://www.w3.org/2000/svg"
   xmlns:svg="http://www.w3.org/2000/svg"><defs
   id="defs7" /><sodipodi:namedview
   id="namedview7"
   pagecolor="#ffffff"
   bordercolor="#000000"
   borderopacity="0.25"
   inkscape:showpageshadow="2"
   inkscape:pageopacity="0.0"
   inkscape:pagecheckerboard="0"
   inkscape:deskcolor="#d1d1d1"
   inkscape:zoom="4.6707317"
   inkscape:cx="114.97128"
   inkscape:cy="123"
   inkscape:window-width="2304"
   inkscape:window-height="1430"
   inkscape:window-x="2869"
   inkscape:window-y="247"
   inkscape:window-maximized="1"
   inkscape:current-layer="Layer_1" />

<path
   fill="#FFB267"
   opacity="1.000000"
   stroke="none"
   d=" M185.962296,240.004425   C172.839249,238.875443 160.322571,226.561401 157.849945,213.974640   C156.217865,205.666595 157.535416,198.240417 160.906311,190.760101   C161.494156,189.455673 161.114944,186.857147 160.147736,185.845490   C152.093872,177.421524 143.797333,169.229538 135.541000,160.934296   C132.206345,162.550064 129.144943,164.319214 125.877647,165.535080   C122.700348,166.717468 119.773354,166.099243 117.958130,162.763199   C116.195366,159.523544 115.773651,156.409470 118.837837,153.699707   C119.926338,152.737122 121.144623,151.837494 122.449890,151.216446   C140.756546,142.505920 144.760559,119.391197 130.358994,105.106781   C115.868446,90.734108 92.317009,95.257111 83.838745,114.293633   C77.160614,129.288269 85.305305,145.509415 98.314880,151.756744   C103.985413,154.479797 105.166542,157.132141 103.118294,161.421814   C100.767120,166.345917 97.523476,167.167007 91.756554,164.310669   C89.582024,163.233643 87.397018,162.177750 85.586823,161.293060   C77.444756,169.530762 69.362747,177.707672 60.850090,186.320312   C64.238045,194.522888 64.853683,203.724060 58.281025,212.278580   C49.393543,223.845932 35.346924,226.195435 23.859760,218.314697   C11.898936,210.109024 9.617333,193.126007 17.667070,182.634995   C24.117752,174.228012 36.572651,169.570786 46.533913,173.987274   C49.291199,175.209747 50.912155,174.776566 52.921547,172.688828   C59.391899,165.966141 66.001305,159.372803 72.703171,152.880386   C74.559517,151.082047 74.687767,149.861694 73.250130,147.652100   C63.657089,132.907883 65.399117,113.284943 75.391060,100.096535   C76.364426,98.811790 77.226601,97.442818 78.107071,96.161423   C72.577911,89.031464 67.196617,82.092171 61.866314,75.218620   C44.288029,83.031769 26.410084,77.174393 17.323122,61.376904   C9.050867,46.995766 11.326835,29.241882 26.869480,16.704765   C37.372387,8.232837 58.429436,9.096228 67.729553,17.042603   C84.131393,31.056940 84.996063,52.213928 73.361328,66.221039   C77.965927,72.340698 82.583733,78.407982 87.116776,84.537941   C88.855370,86.889030 90.596260,87.289436 93.403946,86.021202   C101.915306,82.176598 110.826767,81.565125 119.998993,83.349571   C121.197685,83.582771 123.266220,82.650993 123.946976,81.612930   C125.894676,78.642944 127.335381,75.340477 128.963852,72.191200   C118.728645,58.147846 118.338371,44.947731 127.852295,35.666378   C135.787491,27.925167 150.985596,26.072865 159.294327,31.834311   C170.393997,39.531059 174.051285,52.515678 169.094467,64.052917   C164.761841,74.137291 150.056900,81.155228 142.077744,78.085953   C140.039413,82.046196 137.978989,86.049347 136.249939,89.408669   C141.489838,96.375328 146.451385,102.971916 151.583923,109.795853   C157.567383,108.620110 164.206039,107.172264 170.900986,106.064857   C173.925461,105.564583 175.366730,104.132172 176.038406,101.208420   C178.518570,90.412468 190.933197,80.863426 200.520432,81.991043   C217.115814,83.942924 225.228119,95.427673 225.076355,107.215485   C224.847610,124.982475 212.611069,132.295486 199.482483,132.706573   C190.288177,132.994492 182.792389,127.705460 177.996750,119.328445   C169.685608,120.986565 161.477188,122.624184 154.797562,123.956802   C151.991943,133.597504 149.444504,142.351105 146.614044,152.077179   C154.797333,159.716827 163.913406,168.227280 173.067093,176.772858   C178.066925,175.379593 183.996826,172.622849 190.050644,172.316711   C197.805679,171.924530 205.394577,174.121063 211.809067,179.264465   C227.641663,191.959686 229.544983,212.464584 217.688446,228.409271   C212.843140,234.925247 205.721848,238.955215 197.412216,239.928238   C193.787247,240.352707 190.071854,240.004959 185.962296,240.004425  M57.451527,27.905205   C49.355896,23.057203 41.123806,23.600803 34.332081,29.553040   C28.602669,34.574268 25.375057,41.398369 27.970961,49.720039   C30.249487,57.024300 34.862774,61.896034 42.198978,63.581535   C48.877365,65.115906 55.352421,63.921101 60.461979,58.963879   C69.470680,50.223763 69.479614,37.709618 57.451527,27.905205  M196.392075,187.858032   C194.317581,187.572067 192.244507,187.054245 190.168335,187.041550   C182.485458,186.994553 174.928070,192.700272 172.246002,200.383560   C170.026505,206.741730 172.701141,217.255783 177.852982,221.290405   C184.892776,226.803558 192.662643,227.880020 200.650757,223.668564   C207.771759,219.914246 211.558853,213.639374 210.881027,205.614838   C210.159958,197.078308 205.961090,190.612442 196.392075,187.858032  M31.643009,206.099167   C32.349140,206.485809 33.019165,206.972412 33.767334,207.242722   C38.282303,208.874039 42.286873,208.424225 45.816925,204.740265   C49.143997,201.268158 50.015110,197.387421 47.909821,193.218933   C45.893303,189.226227 42.703949,186.832687 37.760220,186.917786   C32.499512,187.008347 29.835321,189.901245 27.928839,194.255310   C25.877691,198.939774 28.434565,202.241592 31.643009,206.099167  M155.966599,48.951839   C155.129562,47.954281 154.369431,46.877907 153.442062,45.972916   C149.604843,42.228333 143.094574,41.784901 139.321701,45.241203   C134.936554,49.258389 134.164429,53.847378 137.272598,59.527351   C139.549149,63.687618 146.313538,65.291122 150.655350,63.101772   C155.978119,60.417778 158.033005,55.292248 155.966599,48.951839  M210.960724,105.917572   C210.634140,105.011925 210.344803,104.090744 209.974625,103.203270   C208.198151,98.944092 202.821457,96.121773 198.246185,97.024872   C193.908707,97.881042 188.954514,103.371880 189.076385,107.187950   C189.265335,113.104218 194.534912,118.042458 200.613785,117.999901   C206.492798,117.958755 210.811630,113.272255 210.960724,105.917572  z"
   id="path2" />





</svg>
